<svg width="37" height="34" viewBox="0 0 37 34" fill="none" xmlns="http://www.w3.org/2000/svg">
<path d="M11.4067 14.8125V14.725V14.8125ZM22.8556 22.6874C22.8556 22.6874 20.4372 23.9464 18.6778 23.9124C17.0328 23.8806 14.7905 22.7511 14.7905 22.7511M25.6289 14.8125V14.725V14.8125ZM34.5 17C34.5 24.7314 27.3356 30.9999 18.5 30.9999C15.8842 31.0087 13.2996 30.4412 10.9356 29.3392L2.5 30.9999L4.98 24.4899C3.41022 22.3234 2.5 19.7544 2.5 17C2.5 9.26848 9.66444 3 18.5 3C27.3356 3 34.5 9.26848 34.5 17Z" fill="white"/>
<path d="M11.4067 14.8125V14.725M22.8556 22.6874C22.8556 22.6874 20.4372 23.9464 18.6778 23.9124C17.0328 23.8806 14.7905 22.7511 14.7905 22.7511M25.6289 14.8125V14.725M34.5 17C34.5 24.7314 27.3356 30.9999 18.5 30.9999C15.8842 31.0087 13.2996 30.4412 10.9356 29.3392L2.5 30.9999L4.98 24.4899C3.41022 22.3234 2.5 19.7544 2.5 17C2.5 9.26848 9.66445 3 18.5 3C27.3356 3 34.5 9.26848 34.5 17Z" stroke="#603DFA" stroke-width="3.6" stroke-linecap="round" stroke-linejoin="round"/>
</svg>
