<svg width="24" height="24" viewBox="0 0 24 24" fill="none" xmlns="http://www.w3.org/2000/svg">
<g clip-path="url(#clip0_229_508)">
<path d="M12 0.674927C5.625 0.674927 0.375 5.84993 0.375 12.2999C0.375 17.3999 3.7125 21.7499 8.3625 23.3249C8.9625 23.4374 9.15 23.0624 9.15 22.7999C9.15 22.5374 9.15 21.7874 9.1125 20.7749C5.8875 21.5249 5.2125 19.1999 5.2125 19.1999C4.6875 17.8874 3.9 17.5124 3.9 17.5124C2.85 16.7624 3.9375 16.7624 3.9375 16.7624C5.1 16.7999 5.7375 17.9624 5.7375 17.9624C6.75 19.7624 8.475 19.2374 9.1125 18.8999C9.225 18.1499 9.525 17.6249 9.8625 17.3249C7.3125 17.0624 4.575 16.0499 4.575 11.6249C4.575 10.3499 5.0625 9.33743 5.775 8.54993C5.6625 8.28743 5.25 7.08743 5.8875 5.47493C5.8875 5.47493 6.9 5.17493 9.1125 6.67493C10.05 6.41243 11.025 6.26243 12.0375 6.26243C13.05 6.26243 14.0625 6.37493 14.9625 6.67493C17.175 5.21243 18.15 5.47493 18.15 5.47493C18.7875 7.04993 18.4125 8.28743 18.2625 8.54993C19.0125 9.33743 19.4625 10.3874 19.4625 11.6249C19.4625 16.0499 16.725 17.0624 14.175 17.3249C14.5875 17.6999 14.9625 18.4499 14.9625 19.4999C14.9625 21.0749 14.925 22.3124 14.925 22.6874C14.925 22.9874 15.15 23.3249 15.7125 23.2124C20.2875 21.6749 23.625 17.3624 23.625 12.2249C23.5875 5.84993 18.375 0.674927 12 0.674927Z" fill="white"/>
</g>
<defs>
<clipPath id="clip0_229_508">
<rect width="24" height="24" fill="white"/>
</clipPath>
</defs>
</svg>
