<svg width="24" height="24" viewBox="0 0 24 24" fill="none" xmlns="http://www.w3.org/2000/svg">
<g clip-path="url(#clip0_229_512)">
<path d="M23.0631 10.95H12.3006V14.1375H20.0256C19.6131 18.5625 16.0131 20.475 12.5256 20.475C8.1006 20.475 4.1631 17.025 4.1631 12.0375C4.1631 7.23754 7.9131 3.60004 12.5256 3.60004C16.0506 3.60004 18.1881 5.88754 18.1881 5.88754L20.3631 3.60004C20.3631 3.60004 17.4381 0.412541 12.3756 0.412541C5.7006 0.375041 0.600586 5.96254 0.600586 12C0.600586 17.85 5.4006 23.625 12.4881 23.625C18.7506 23.625 23.2506 19.3875 23.2506 13.05C23.2881 11.7375 23.0631 10.95 23.0631 10.95Z" fill="white"/>
</g>
<defs>
<clipPath id="clip0_229_512">
<rect width="24" height="24" fill="white"/>
</clipPath>
</defs>
</svg>
