<svg width="16" height="16" viewBox="0 0 16 16" fill="none" xmlns="http://www.w3.org/2000/svg">
<path d="M8.8001 2.39961C8.8001 2.18744 8.71581 1.98395 8.56578 1.83392C8.41575 1.68389 8.21227 1.59961 8.0001 1.59961C7.78792 1.59961 7.58444 1.68389 7.43441 1.83392C7.28438 1.98395 7.2001 2.18744 7.2001 2.39961V3.19961C7.2001 3.41178 7.28438 3.61527 7.43441 3.76529C7.58444 3.91532 7.78792 3.99961 8.0001 3.99961C8.21227 3.99961 8.41575 3.91532 8.56578 3.76529C8.71581 3.61527 8.8001 3.41178 8.8001 3.19961V2.39961ZM12.5257 4.60521C12.6714 4.45433 12.7521 4.25225 12.7502 4.04249C12.7484 3.83273 12.6643 3.63208 12.516 3.48375C12.3676 3.33543 12.167 3.25129 11.9572 3.24947C11.7475 3.24765 11.5454 3.32828 11.3945 3.47401L10.8289 4.03961C10.6832 4.19049 10.6025 4.39257 10.6044 4.60233C10.6062 4.81209 10.6903 5.01274 10.8386 5.16106C10.987 5.30939 11.1876 5.39353 11.3974 5.39535C11.6071 5.39717 11.8092 5.31654 11.9601 5.17081L12.5257 4.60521ZM14.4001 7.99961C14.4001 8.21178 14.3158 8.41527 14.1658 8.56529C14.0158 8.71532 13.8123 8.79961 13.6001 8.79961H12.8001C12.5879 8.79961 12.3844 8.71532 12.2344 8.56529C12.0844 8.41527 12.0001 8.21178 12.0001 7.99961C12.0001 7.78744 12.0844 7.58395 12.2344 7.43392C12.3844 7.2839 12.5879 7.19961 12.8001 7.19961H13.6001C13.8123 7.19961 14.0158 7.2839 14.1658 7.43392C14.3158 7.58395 14.4001 7.78744 14.4001 7.99961ZM4.0401 5.17081C4.1139 5.24722 4.20217 5.30816 4.29977 5.35009C4.39738 5.39202 4.50235 5.41409 4.60858 5.41501C4.7148 5.41593 4.82014 5.39569 4.91846 5.35547C5.01678 5.31524 5.1061 5.25584 5.18121 5.18073C5.25633 5.10561 5.31573 5.01629 5.35596 4.91797C5.39618 4.81966 5.41642 4.71431 5.4155 4.60809C5.41457 4.50186 5.39251 4.39689 5.35058 4.29929C5.30865 4.20168 5.24771 4.11341 5.1713 4.03961L4.6057 3.47401C4.45482 3.32828 4.25273 3.24765 4.04298 3.24947C3.83322 3.25129 3.63257 3.33543 3.48424 3.48375C3.33592 3.63208 3.25178 3.83273 3.24996 4.04249C3.24814 4.25225 3.32877 4.45433 3.4745 4.60521L4.0401 5.17081ZM4.0001 7.99961C4.0001 8.21178 3.91581 8.41527 3.76578 8.56529C3.61575 8.71532 3.41227 8.79961 3.2001 8.79961H2.4001C2.18792 8.79961 1.98444 8.71532 1.83441 8.56529C1.68438 8.41527 1.6001 8.21178 1.6001 7.99961C1.6001 7.78744 1.68438 7.58395 1.83441 7.43392C1.98444 7.2839 2.18792 7.19961 2.4001 7.19961H3.2001C3.41227 7.19961 3.61575 7.2839 3.76578 7.43392C3.91581 7.58395 4.0001 7.78744 4.0001 7.99961ZM6.4001 12.7996V11.9996H9.6001V12.7996C9.6001 13.224 9.43153 13.6309 9.13147 13.931C8.83141 14.231 8.42444 14.3996 8.0001 14.3996C7.57575 14.3996 7.16879 14.231 6.86873 13.931C6.56867 13.6309 6.4001 13.224 6.4001 12.7996ZM9.6001 11.1996C9.6121 10.9276 9.7665 10.6828 9.9817 10.5124C10.5038 10.1006 10.8847 9.53638 11.0714 8.89813C11.2581 8.25989 11.2413 7.57934 11.0234 6.95107C10.8054 6.32281 10.3972 5.77804 9.85538 5.3925C9.31356 5.00696 8.66509 4.79979 8.0001 4.79979C7.33511 4.79979 6.68664 5.00696 6.14482 5.3925C5.603 5.77804 5.19476 6.32281 4.97682 6.95107C4.75889 7.57934 4.7421 8.25989 4.92878 8.89813C5.11547 9.53638 5.49635 10.1006 6.0185 10.5124C6.2345 10.6828 6.3881 10.9276 6.3993 11.1996H9.6009H9.6001Z" fill="#353535"/>
</svg>
