<svg width="16" height="16" viewBox="0 0 16 16" fill="none" xmlns="http://www.w3.org/2000/svg">
<path d="M7.1998 4.80039C7.1998 5.43691 6.94695 6.04736 6.49686 6.49745C6.04677 6.94753 5.43632 7.20039 4.7998 7.20039C4.16329 7.20039 3.55284 6.94753 3.10275 6.49745C2.65266 6.04736 2.3998 5.43691 2.3998 4.80039C2.3998 4.16387 2.65266 3.55342 3.10275 3.10333C3.55284 2.65325 4.16329 2.40039 4.7998 2.40039C5.43632 2.40039 6.04677 2.65325 6.49686 3.10333C6.94695 3.55342 7.1998 4.16387 7.1998 4.80039ZM13.5998 4.80039C13.5998 5.11556 13.5377 5.42765 13.4171 5.71883C13.2965 6.01001 13.1197 6.27459 12.8969 6.49745C12.674 6.72031 12.4094 6.89709 12.1182 7.0177C11.8271 7.13831 11.515 7.20039 11.1998 7.20039C10.8846 7.20039 10.5725 7.13831 10.2814 7.0177C9.99018 6.89709 9.72561 6.72031 9.50275 6.49745C9.27989 6.27459 9.1031 6.01001 8.98249 5.71883C8.86188 5.42765 8.7998 5.11556 8.7998 4.80039C8.7998 4.16387 9.05266 3.55342 9.50275 3.10333C9.95284 2.65325 10.5633 2.40039 11.1998 2.40039C11.8363 2.40039 12.4468 2.65325 12.8969 3.10333C13.3469 3.55342 13.5998 4.16387 13.5998 4.80039ZM10.3438 13.6004C10.3806 13.3388 10.3998 13.0724 10.3998 12.8004C10.4017 11.5435 9.97879 10.3228 9.1998 9.33639C9.80787 8.98532 10.4976 8.8005 11.1998 8.80049C11.9019 8.80049 12.5917 8.9853 13.1998 9.33637C13.8078 9.68743 14.3128 10.1924 14.6639 10.8004C15.0149 11.4085 15.1998 12.0983 15.1998 12.8004V13.6004H10.3438ZM4.7998 8.80039C5.86067 8.80039 6.87809 9.22182 7.62823 9.97196C8.37838 10.7221 8.7998 11.7395 8.7998 12.8004V13.6004H0.799805V12.8004C0.799805 11.7395 1.22123 10.7221 1.97138 9.97196C2.72152 9.22182 3.73894 8.80039 4.7998 8.80039Z" fill="#353535"/>
</svg>
