<svg width="122" height="121" viewBox="0 0 122 121" fill="none" xmlns="http://www.w3.org/2000/svg">
<path d="M55.8559 55.1148H8.08985C4.03131 55.1148 0.741211 51.8247 0.741211 47.7661V7.34863C0.741211 3.2901 4.03131 0 8.08985 0H48.5073C52.5658 0 55.8559 3.2901 55.8559 7.34864V55.1148Z" fill="#D8CEFA"/>
<path d="M66.144 65.4029H121.259V113.169C121.259 117.228 117.969 120.518 113.91 120.518H66.144V65.4029Z" fill="#603DFA"/>
<path d="M66.144 65.4029V17.6367C66.144 13.5782 69.4341 10.2881 73.4926 10.2881H113.91C117.969 10.2881 121.259 13.5782 121.259 17.6367V65.4029H66.144Z" fill="#603DFA"/>
<path d="M66.144 65.4029V120.518H18.3779C14.3194 120.518 11.0293 117.228 11.0293 113.169V72.7515C11.0293 68.6929 14.3194 65.4029 18.3779 65.4029H66.144Z" fill="#603DFA"/>
</svg>
