<svg width="160" height="114" viewBox="0 0 160 114" fill="none" xmlns="http://www.w3.org/2000/svg">
<path d="M22.6415 54.8659H3.01887C1.35159 54.8659 0 53.5009 0 51.8171V35.0488C0 33.365 1.35159 32 3.01887 32H19.6226C21.2899 32 22.6415 33.365 22.6415 35.0488V54.8659Z" fill="#D8CEFA"/>
<path d="M26.8679 59.1341H49.5094V78.9512C49.5094 80.635 48.1578 82 46.4906 82H26.8679V59.1341Z" fill="#603DFA"/>
<path d="M26.8679 59.1341V39.3171C26.8679 37.6333 28.2195 36.2683 29.8868 36.2683H46.4906C48.1578 36.2683 49.5094 37.6333 49.5094 39.3171V59.1341H26.8679Z" fill="#603DFA"/>
<path d="M26.8679 59.1341V82H7.24528C5.57801 82 4.22642 80.635 4.22642 78.9512V62.1829C4.22642 60.4991 5.57801 59.1341 7.24528 59.1341H26.8679Z" fill="#603DFA"/>
<path d="M78.3273 53.2495C78.1834 52.7452 77.9813 52.2997 77.7209 51.9129C77.4605 51.5192 77.1419 51.1877 76.7651 50.9183C76.3951 50.642 75.9702 50.4314 75.4906 50.2863C75.0178 50.1413 74.4937 50.0687 73.9181 50.0687C72.8424 50.0687 71.8968 50.3381 71.0814 50.8769C70.2729 51.4156 69.6425 52.1996 69.1903 53.2287C68.7381 54.251 68.512 55.5012 68.512 56.9793C68.512 58.4574 68.7346 59.7145 69.18 60.7506C69.6254 61.7866 70.2558 62.5775 71.0711 63.1231C71.8865 63.6619 72.8492 63.9313 73.9592 63.9313C74.9664 63.9313 75.8264 63.7517 76.5389 63.3925C77.2584 63.0264 77.8065 62.5119 78.1834 61.8488C78.5671 61.1857 78.759 60.4017 78.759 59.4969L79.6634 59.6316H74.2367V56.254H83.0448V58.9271C83.0448 60.792 82.6542 62.3944 81.8731 63.7344C81.092 65.0675 80.0163 66.0966 78.6459 66.8219C77.2755 67.5402 75.7064 67.8994 73.9387 67.8994C71.9653 67.8994 70.2318 67.4608 68.7381 66.5836C67.2444 65.6995 66.0795 64.4458 65.2436 62.8227C64.4145 61.1926 64 59.2586 64 57.0207C64 55.3009 64.2467 53.7675 64.74 52.4206C65.2402 51.0668 65.9391 49.9202 66.8367 48.9809C67.7343 48.0415 68.7792 47.3266 69.9714 46.8362C71.1636 46.3458 72.4552 46.1006 73.8462 46.1006C75.0384 46.1006 76.1484 46.2767 77.1762 46.629C78.204 46.9744 79.1153 47.4648 79.9101 48.1002C80.7117 48.7357 81.3661 49.492 81.8731 50.3692C82.3802 51.2395 82.7056 52.1996 82.8495 53.2495H78.3273Z" fill="#1D134D"/>
<path d="M89.3657 67.6093H84.5968L91.8632 46.3907H97.5982L104.854 67.6093H100.085L94.8129 51.2395H94.6485L89.3657 67.6093ZM89.0676 59.269H100.332V62.7709H89.0676V59.269Z" fill="#1D134D"/>
<path d="M107.388 46.3907H112.876L118.673 60.6469H118.92L124.716 46.3907H130.205V67.6093H125.888V53.7986H125.713L120.266 67.5057H117.326L111.879 53.7468H111.705V67.6093H107.388V46.3907Z" fill="#1D134D"/>
<path d="M138.322 46.3907V67.6093H133.871V46.3907H138.322Z" fill="#1D134D"/>
<path d="M146.156 46.3907L150.401 53.6224H150.565L154.83 46.3907H159.856L153.432 57L160 67.6093H154.882L150.565 60.3672H150.401L146.084 67.6093H140.986L147.574 57L141.109 46.3907H146.156Z" fill="#1D134D"/>
</svg>
