<?xml version="1.0" standalone="no"?>
<!DOCTYPE svg PUBLIC "-//W3C//DTD SVG 20010904//EN"
 "http://www.w3.org/TR/2001/REC-SVG-20010904/DTD/svg10.dtd">
<svg version="1.0" xmlns="http://www.w3.org/2000/svg"
 width="818.000000pt" height="459.000000pt" viewBox="0 0 818.000000 459.000000"
 preserveAspectRatio="xMidYMid meet">
<metadata>
Created by potrace 1.16, written by Peter Selinger 2001-2019
</metadata>
<g transform="translate(0.000000,459.000000) scale(0.100000,-0.100000)"
fill="#000000" stroke="none">
<path d="M0 2295 l0 -2295 1659 0 1660 0 11 58 c16 82 89 288 113 319 45 57
154 80 223 47 44 -21 61 -47 109 -164 21 -52 56 -132 77 -177 l39 -83 135 0
134 0 -6 214 -7 214 44 7 c24 3 69 5 99 3 52 -3 55 -4 53 -28 -2 -14 0 -112 3
-218 l6 -193 141 3 140 3 72 186 c40 102 80 198 91 212 47 66 178 89 245 44
58 -39 83 -88 180 -359 l31 -88 1464 0 1464 0 0 2295 0 2295 -4090 0 -4090 0
0 -2295z m6333 1931 c29 -20 42 -23 65 -17 21 7 42 3 83 -15 30 -13 62 -23 73
-24 33 0 86 -41 107 -81 10 -21 26 -76 35 -122 9 -45 24 -109 35 -142 10 -33
25 -104 33 -158 9 -62 24 -118 41 -153 33 -67 27 -89 -46 -164 -46 -47 -69
-64 -53 -38 5 8 2 9 -9 5 -21 -8 -22 11 -2 39 12 18 12 26 2 48 -7 14 -16 26
-22 26 -12 0 -55 61 -55 78 0 7 7 12 15 12 17 0 20 16 5 25 -6 4 -7 13 -1 23
9 17 -11 130 -30 164 -5 10 -9 28 -9 41 0 13 -5 28 -12 35 -9 9 -9 15 -1 23 8
8 9 18 0 36 -9 21 -7 27 18 48 l30 23 -38 16 c-32 13 -37 19 -32 36 6 20 6 20
-35 -1 -46 -24 -68 -64 -80 -144 -4 -27 -15 -66 -23 -85 l-16 -35 6 32 c10 57
-5 101 -38 118 -16 9 -34 13 -39 10 -19 -12 -21 23 -4 57 10 18 17 44 15 57
-2 14 1 21 8 17 7 -5 9 3 5 22 -5 25 -2 31 15 37 12 3 21 10 21 15 0 5 -14 4
-30 -2 -32 -11 -50 -34 -50 -65 0 -10 -7 -26 -15 -37 -13 -18 -16 -17 -47 16
-25 27 -40 35 -60 32 -22 -2 -28 2 -28 16 0 11 10 25 23 31 12 7 27 19 33 28
7 9 37 30 68 46 85 46 67 51 -22 6 -117 -59 -168 -128 -143 -194 6 -16 7 -29
1 -32 -5 -3 -7 -11 -5 -18 15 -50 15 -67 -1 -67 -10 0 -14 3 -11 7 4 3 -4 16
-16 27 -13 12 -26 30 -30 39 -4 10 -12 15 -18 11 -8 -5 -8 -9 1 -14 7 -5 9
-13 5 -21 -10 -15 -54 74 -55 111 0 14 -7 36 -15 50 l-14 25 -1 -28 c0 -40
-28 -79 -51 -72 -13 4 -19 1 -19 -9 0 -41 -20 -16 -50 64 -29 79 -31 93 -20
119 19 46 92 65 219 58 82 -4 105 -2 137 13 56 26 104 25 147 -4z m-674 -41
c52 -27 195 -205 178 -222 -3 -3 -13 10 -23 29 -9 18 -24 41 -33 50 -9 9 -22
24 -29 33 -17 20 -105 21 -122 0 -10 -12 -7 -19 15 -39 35 -32 30 -61 -10 -61
-19 0 -29 5 -27 13 1 7 -5 15 -13 18 -8 4 -15 11 -15 18 0 6 -9 17 -20 24 -24
15 -52 79 -45 103 7 20 60 48 93 49 13 0 36 -7 51 -15z m-3337 -235 c16 -19
16 -24 -2 -73 -26 -76 -46 -119 -78 -174 -44 -75 -60 -125 -72 -220 -12 -97
-30 -140 -115 -268 -99 -149 -111 -163 -137 -158 -13 3 -28 14 -33 26 -7 14
-19 22 -35 22 -18 0 -25 6 -25 20 0 12 6 19 14 17 22 -5 53 29 41 44 -8 8 -7
13 2 17 8 3 4 9 -12 15 -14 6 -21 11 -16 11 6 1 1 8 -10 16 -11 8 -14 15 -6
15 6 0 12 5 12 11 0 7 -10 9 -24 5 -14 -3 -28 -1 -31 5 -4 6 -13 8 -20 5 -7
-2 -16 1 -19 9 -5 14 13 25 42 26 26 0 137 85 133 100 -1 8 -5 28 -7 44 -2 17
-7 49 -10 73 -4 24 -2 53 4 65 6 12 15 37 21 54 9 29 7 35 -12 48 -12 8 -35
15 -51 15 -22 0 -42 12 -73 42 -24 23 -43 48 -43 55 0 19 34 33 84 33 37 0 55
-7 93 -36 27 -20 54 -46 60 -58 15 -24 8 -98 -13 -160 -8 -21 -14 -47 -14 -58
0 -19 1 -19 19 3 17 21 22 22 40 12 28 -17 28 -18 35 22 4 21 13 35 21 35 18
0 18 2 1 45 -8 18 -12 43 -9 54 8 32 -13 25 -27 -9 -21 -52 -29 -33 -11 28 23
76 48 121 93 171 73 79 149 100 190 51z m3396 18 c8 -8 15 -8 27 2 12 10 15
10 15 0 0 -7 21 -32 46 -57 29 -27 51 -60 60 -86 7 -23 13 -37 13 -31 1 6 10
10 22 9 25 -2 72 -76 67 -108 -1 -12 1 -28 5 -34 5 -8 3 -13 -7 -13 -27 0 -19
-37 9 -44 33 -8 33 -36 1 -36 -14 0 -28 5 -32 11 -5 8 -9 8 -14 -1 -5 -9 -19
0 -46 30 -22 23 -42 48 -47 56 -4 7 -14 11 -22 7 -11 -4 -21 9 -35 43 -37 87
-92 194 -102 194 -5 0 -4 10 3 21 8 15 8 19 0 15 -6 -4 -11 -1 -11 7 0 27 27
36 48 15z m-1433 -38 c8 -16 15 -40 15 -55 0 -14 5 -25 10 -25 6 0 10 7 10 15
0 9 6 12 15 9 8 -4 15 -14 15 -23 0 -14 2 -14 10 -1 5 8 10 30 10 49 0 34 0
34 19 15 10 -10 17 -22 15 -25 -5 -8 24 -79 32 -79 3 0 2 5 -2 12 -4 7 -3 8 5
4 6 -4 9 -11 6 -16 -3 -5 17 -33 44 -62 33 -35 53 -66 60 -95 6 -24 15 -43 20
-43 5 0 13 -14 16 -32 4 -18 27 -71 51 -119 24 -48 44 -92 44 -98 0 -6 4 -11
8 -11 5 0 5 30 0 68 -17 142 -14 174 16 209 l24 28 13 -27 c9 -22 9 -30 -1
-43 -22 -26 8 -18 55 16 54 39 85 34 120 -19 26 -40 55 -178 55 -266 0 -64
-37 -141 -93 -193 -23 -21 -63 -60 -90 -88 l-49 -50 5 -70 c2 -38 1 -99 -4
-135 -10 -69 2 -174 41 -363 17 -86 25 -104 60 -146 22 -26 44 -61 49 -77 9
-32 -13 -221 -31 -266 -16 -43 -126 -140 -199 -175 -77 -38 -314 -98 -450
-115 -73 -9 -117 -9 -176 0 -89 12 -166 36 -171 52 -2 5 -10 10 -17 10 -20 0
-74 67 -97 119 -17 40 -19 61 -15 152 3 67 11 117 20 136 12 22 13 40 7 69 -4
21 -11 62 -14 89 -6 46 -5 48 9 31 8 -11 15 -27 15 -36 0 -8 9 -22 20 -30 20
-14 29 -37 10 -25 -14 9 -12 -18 3 -36 6 -8 30 -28 52 -44 45 -33 91 -85 87
-97 -1 -5 11 -27 28 -49 27 -38 28 -43 14 -54 -15 -10 -11 -14 27 -32 81 -37
103 -43 203 -48 55 -3 103 -8 108 -11 5 -3 7 0 6 7 -2 7 12 16 31 20 18 4 40
13 47 21 13 12 12 17 -6 33 -20 18 -20 18 13 49 17 17 32 40 33 51 1 11 5 28
9 38 12 28 -9 43 -40 29 -34 -16 -32 -17 -40 21 -4 17 -14 39 -21 48 -12 14
-10 21 16 54 16 21 30 45 29 54 0 9 -3 11 -5 5 -4 -9 -14 -9 -37 -1 -58 19
-94 36 -106 51 -7 8 -28 20 -47 26 -19 6 -34 15 -34 20 0 10 -34 3 -77 -16
-44 -20 -56 -18 -48 9 10 33 29 49 61 52 73 6 110 18 128 42 15 21 17 29 7 42
-6 9 -14 23 -17 32 -7 21 -56 38 -91 31 -25 -5 -27 -4 -14 11 7 9 17 15 21 12
4 -3 10 1 13 9 8 20 67 32 77 16 8 -13 14 -11 58 14 18 11 30 11 53 3 37 -15
53 -1 36 32 -7 13 -21 29 -32 35 -10 6 -27 20 -37 31 -16 18 -17 19 -18 2 0
-10 -9 -27 -20 -39 -19 -21 -23 -21 -95 -10 -50 8 -83 8 -100 2 -15 -6 -47
-10 -72 -10 -34 0 -55 -7 -79 -25 -40 -31 -59 -33 -44 -6 15 28 13 37 -10 38
-11 1 -20 -4 -20 -13 0 -8 -8 -14 -18 -14 -10 0 -23 -5 -29 -11 -15 -15 -33
-3 -33 22 0 14 -7 19 -26 19 -16 0 -23 4 -18 11 3 6 0 15 -7 20 -7 4 -10 11
-6 16 5 4 17 -3 27 -17 15 -19 20 -21 20 -9 0 9 7 19 15 23 8 3 15 18 15 33 0
39 15 60 32 46 7 -6 34 -14 61 -18 26 -4 47 -8 47 -10 0 -1 -7 -16 -15 -31
-29 -56 -14 -69 37 -32 l31 21 19 -26 c11 -15 23 -27 26 -27 10 0 37 63 33 75
-18 54 -19 66 -5 80 14 13 13 15 -10 15 -14 0 -26 4 -26 9 0 11 40 22 53 14 6
-3 28 -8 50 -10 31 -2 46 2 64 19 14 13 21 29 18 38 -3 8 7 0 22 -17 16 -18
32 -33 36 -33 16 0 5 37 -18 59 -14 13 -25 35 -26 50 0 23 -1 23 -8 6 -8 -19
-8 -19 -20 2 -6 13 -20 27 -30 33 -18 9 -19 8 -4 -39 10 -31 13 -59 8 -77 -5
-19 -9 -24 -13 -14 -11 32 -62 40 -96 15 -16 -12 -22 -12 -42 2 -15 9 -48 16
-83 17 -51 1 -62 -2 -81 -24 l-21 -25 7 30 c13 56 9 111 -8 129 -18 18 -32 7
-22 -18 3 -9 2 -16 -4 -16 -15 0 -22 -42 -10 -58 9 -10 8 -16 -3 -23 -8 -5 -9
-9 -4 -9 6 0 4 -4 -3 -8 -7 -5 -14 -28 -16 -53 -2 -31 -8 -45 -20 -47 -9 -2
-16 -10 -16 -18 0 -8 -10 -14 -22 -15 -22 0 -22 -1 -3 -9 19 -8 19 -9 -2 -9
-13 -1 -23 -4 -23 -9 0 -11 -100 -8 -108 4 -4 6 -15 13 -25 17 -13 5 -16 13
-12 27 6 19 -3 25 -29 21 -5 -1 -6 5 -3 13 7 19 -4 26 -44 31 -29 4 -30 3 -24
-27 4 -17 15 -45 25 -62 21 -38 44 -120 38 -138 -3 -7 -13 11 -22 40 -20 59
-49 92 -81 92 -29 0 -75 48 -56 59 19 12 -2 47 -34 55 -14 4 -25 11 -25 17 0
8 -4 8 -13 0 -11 -9 -17 -3 -30 27 -24 57 -29 80 -17 87 5 3 10 16 10 28 1 22
1 22 12 2 6 -11 15 -22 19 -25 4 -3 10 -17 12 -30 10 -57 29 -90 55 -96 15 -3
35 -9 44 -14 14 -8 16 -6 11 8 -3 9 -13 25 -21 34 -8 10 -14 30 -14 45 0 15
-6 51 -15 78 -9 30 -17 110 -20 197 -5 127 -3 149 11 163 9 9 16 25 16 36 0
10 6 19 13 19 7 0 20 9 30 20 19 22 22 35 8 25 -5 -3 -12 -1 -16 5 -3 5 -2 10
2 10 5 0 13 10 18 23 6 12 17 21 25 19 11 -3 11 0 1 12 -11 13 -9 17 10 24 13
5 42 12 64 16 21 4 53 15 70 24 16 9 36 15 44 13 7 -1 10 2 6 8 -4 7 4 11 19
11 32 0 42 16 17 29 -14 8 -31 7 -61 -4 -52 -18 -50 -18 -50 0 0 8 4 15 9 15
12 0 75 60 65 61 -5 1 -13 1 -19 0 -5 -1 -1 6 10 15 11 8 19 19 18 24 -3 9 28
16 109 23 l48 5 -4 -34 c-3 -25 -1 -34 10 -34 27 0 14 -21 -23 -38 l-38 -17
38 -3 c20 -2 37 -7 37 -13 0 -5 6 -8 12 -7 7 2 14 -7 16 -19 2 -13 10 -23 19
-23 10 0 13 6 9 16 -7 19 11 38 44 47 19 5 29 1 42 -15 9 -13 28 -22 44 -23
15 0 29 -6 31 -12 3 -8 -4 -13 -18 -13 -22 0 -74 -49 -84 -80 -3 -9 6 -38 20
-65 18 -36 21 -52 14 -62 -15 -18 -4 -54 26 -87 20 -22 32 -27 53 -22 20 5 23
4 12 -4 -13 -9 -11 -13 10 -30 14 -11 41 -25 60 -31 19 -6 43 -18 52 -27 20
-16 25 -9 30 37 2 19 -3 26 -22 31 l-25 7 30 12 c16 7 49 28 73 48 37 30 47
34 78 28 48 -9 42 13 -12 40 -29 14 -60 20 -121 20 l-81 0 14 34 c8 18 14 35
14 37 0 2 10 4 21 4 19 0 20 2 8 17 -12 15 -12 16 1 8 12 -7 13 -6 3 6 -11 14
-5 20 42 44 67 34 76 45 35 45 -17 0 -41 7 -53 15 -19 12 -34 13 -82 5 -85
-14 -96 -13 -93 8 2 11 -3 17 -14 16 -21 -2 -23 12 -5 30 18 18 47 27 47 15 0
-7 7 -8 18 -4 9 4 24 8 31 9 8 2 17 9 20 17 2 8 13 22 24 32 18 15 18 17 3 17
-12 0 -16 7 -14 23 2 14 10 22 23 22 17 0 20 -6 17 -42 -2 -26 1 -43 7 -43 6
0 11 -8 12 -17 1 -29 17 16 18 50 1 15 6 27 11 27 6 0 15 10 20 23 7 18 9 15
11 -23 l1 -45 8 39 c4 22 3 55 -2 73 -8 30 -4 73 7 73 3 0 11 -13 20 -30z
m-2592 -100 c28 -16 72 -48 97 -70 44 -38 45 -41 44 -97 -1 -74 -33 -220 -50
-234 -11 -9 -14 -5 -14 24 0 52 -16 87 -40 87 -11 0 -20 7 -20 15 0 8 8 15 18
15 10 0 26 6 36 13 15 11 16 17 5 40 -11 24 -18 28 -48 25 -33 -3 -36 -6 -34
-31 2 -28 2 -28 -26 10 -15 21 -33 49 -40 61 -6 12 -18 22 -25 22 -7 0 -21 9
-31 20 -10 11 -24 20 -30 20 -22 0 -23 36 -1 62 47 56 84 60 159 18z m-206
-77 c23 -38 101 -113 117 -113 7 0 21 -9 31 -20 15 -16 17 -38 17 -142 -1
-157 0 -148 -16 -148 -14 0 -27 71 -26 136 1 72 -38 107 -76 69 -22 -22 -31
-19 -37 13 -6 29 -96 132 -116 132 -23 0 -9 -27 35 -65 53 -47 52 -65 -6 -95
-21 -11 -40 -25 -43 -32 -3 -9 -17 -2 -46 20 l-42 34 -20 -23 c-12 -14 -17
-30 -13 -42 5 -16 3 -19 -11 -14 -10 5 -15 3 -13 -5 2 -6 20 -17 39 -23 43
-15 55 -50 14 -43 l-27 6 28 -24 c27 -22 28 -23 7 -24 -25 0 -39 -15 -23 -25
6 -4 18 -1 26 6 8 6 17 9 20 6 9 -9 -5 -27 -21 -27 -7 0 -16 -7 -19 -16 -3 -8
-10 -12 -16 -9 -5 3 -10 -2 -10 -13 0 -10 -6 -32 -14 -48 -12 -25 -12 -40 0
-104 19 -105 4 -167 -25 -104 -8 19 -9 36 -1 66 8 29 8 55 -1 96 -6 31 -13
125 -14 207 -3 229 18 288 116 320 26 9 64 29 85 46 47 37 78 38 101 2z m4733
-126 c25 0 53 3 62 7 12 6 27 -3 54 -29 39 -39 39 -38 1 -100 -11 -18 -23 -22
-44 -15 -5 1 -12 2 -17 1 -5 -1 -26 12 -47 29 -21 16 -44 30 -52 30 -16 0 -31
27 -28 48 1 6 -3 12 -9 12 -5 0 -10 -4 -10 -10 0 -5 -4 -10 -10 -10 -15 0 -12
17 6 35 10 10 23 13 33 9 9 -4 36 -8 61 -7z m514 -368 c-19 -22 -19 -22 4 -10
25 13 29 3 11 -30 -13 -25 -57 -43 -73 -30 -7 6 -18 4 -30 -5 -11 -8 -34 -14
-52 -14 -18 0 -37 -6 -41 -13 -10 -14 -70 -37 -101 -37 -41 0 -22 18 36 33
l57 16 -70 -5 c-60 -4 -74 -2 -95 15 l-25 21 34 -10 c41 -11 143 1 228 28 35
11 60 16 57 11 -7 -12 7 -11 26 1 13 9 13 10 0 10 -8 0 -2 9 15 19 39 25 42
25 19 0z m-5183 -36 c29 -21 38 -33 34 -48 -3 -13 3 -25 15 -33 26 -16 16 -40
-16 -34 -19 3 -24 0 -24 -17 0 -26 -26 -38 -49 -24 -9 6 -31 14 -48 17 -19 5
-33 15 -36 28 -3 11 -10 17 -16 13 -6 -3 -16 -3 -22 1 -8 4 -3 11 12 20 21 11
22 13 7 19 -20 8 -24 50 -6 61 13 9 65 22 91 23 11 1 36 -11 58 -26z m3476
-1875 c6 -7 13 -35 17 -63 4 -33 13 -56 27 -67 26 -22 59 -23 59 -3 0 25 28
73 49 84 15 9 21 5 37 -24 l18 -34 -42 -36 c-46 -40 -64 -86 -55 -141 4 -27
10 -34 22 -30 10 4 7 -1 -6 -13 -30 -25 -30 -51 0 -51 25 0 77 -43 77 -64 0
-54 -81 -117 -154 -119 -46 -1 -66 18 -66 62 0 40 16 66 68 114 25 24 32 39
32 68 0 42 -12 54 -76 77 -26 10 -56 30 -67 45 l-21 27 22 53 c28 66 28 83 0
92 -22 6 -22 7 7 20 38 18 40 18 52 3z m-1878 -246 c-7 -10 -9 -30 -5 -45 11
-45 54 -51 228 -33 84 9 178 19 208 21 l55 5 -45 -15 c-88 -29 -360 -85 -414
-85 -44 0 -60 5 -85 26 -49 41 -36 93 32 134 36 22 43 20 26 -8z"/>
<path d="M3555 3500 c-16 -5 -48 -13 -70 -19 -25 -6 -50 -22 -67 -43 -15 -18
-28 -27 -28 -20 0 6 -4 12 -10 12 -6 0 -6 -9 -1 -22 5 -13 9 -51 10 -86 1 -71
32 -148 62 -157 10 -3 27 -1 38 4 10 6 51 10 90 10 56 -1 70 -4 62 -13 -6 -7
-8 -16 -4 -19 3 -4 -3 -7 -15 -7 -11 0 -24 -4 -27 -10 -3 -6 5 -10 19 -10 24
0 40 -23 34 -50 -4 -18 14 -22 32 -7 22 17 100 139 100 155 0 8 6 12 13 9 6
-2 11 -14 9 -27 -1 -16 2 -21 13 -17 17 7 30 -10 30 -37 0 -32 22 -29 34 5 9
27 13 30 26 19 21 -18 28 -7 20 29 -7 34 -16 38 -35 16 -29 -35 -30 -20 -16
165 2 24 10 38 24 46 21 10 21 12 5 26 -31 26 -42 29 -63 16 -17 -11 -33 -9
-102 15 -84 28 -128 32 -183 17z"/>
<path d="M4765 3413 c-12 -33 -3 -61 30 -93 19 -19 35 -38 35 -43 0 -4 -16
-23 -35 -41 -19 -19 -35 -38 -35 -45 0 -21 39 -11 56 14 9 14 22 25 28 25 34
0 82 99 57 115 -6 3 -11 15 -11 25 0 23 -7 28 -69 44 -43 11 -51 11 -56 -1z"/>
<path d="M4926 291 c-3 -5 -28 -72 -55 -150 l-48 -141 124 0 c115 0 125 1 118
18 -3 9 -15 43 -26 75 -40 118 -70 191 -82 199 -16 10 -25 10 -31 -1z"/>
<path d="M3542 213 c-11 -27 -28 -77 -37 -113 -9 -36 -18 -73 -21 -82 -5 -16
5 -18 106 -18 86 0 111 3 107 13 -3 6 -27 65 -53 130 -55 135 -70 145 -102 70z"/>
</g>
</svg>
